<svg data-v-fde0c5aa="" xmlns="http://www.w3.org/2000/svg" viewBox="0 0 300 300" class="iconLeft"><!----><defs data-v-fde0c5aa=""><!----></defs><rect data-v-fde0c5aa="" fill="transparent" x="0" y="0" width="300px" height="300px" class="logo-background-square"></rect><defs data-v-fde0c5aa=""><!----></defs><g data-v-fde0c5aa="" id="20b678f7-87b1-4c7e-83f3-0796ad59c640" fill="#000000" transform="matrix(1.5361241102218628,0,0,1.5361241102218628,84.50590521444697,134.5158692196205)"><path d="M0.49 11.14C0.99 13.01 2.46 14.14 4.48 14.14C6.38 14.14 7.94 13.02 7.94 11.37C7.94 7.80 2.17 9.07 2.17 6.24C2.17 5.28 3.07 4.62 4.37 4.62C5.59 4.62 6.47 5.33 6.82 6.51L7.90 6.51C7.52 4.80 6.24 3.64 4.37 3.64C2.44 3.64 1.08 4.72 1.08 6.24C1.08 10.05 6.83 8.69 6.83 11.40C6.83 12.40 5.84 13.16 4.48 13.16C3.14 13.16 2.03 12.49 1.60 11.14ZM13.62 6.58C12.43 6.58 11.47 7.04 10.82 7.85L10.68 6.72L9.93 6.72L9.93 17.08L10.89 17.08L10.89 12.94C11.52 13.69 12.40 14.14 13.61 14.14C15.62 14.14 17.25 12.46 17.25 10.33C17.25 8.23 15.61 6.58 13.62 6.58ZM13.52 13.23C12.31 13.23 11.47 12.63 10.96 11.63L10.96 9.07C11.44 8.12 12.31 7.49 13.52 7.49C14.94 7.49 16.18 8.72 16.18 10.33C16.18 11.96 14.97 13.23 13.52 13.23ZM18.61 10.33C18.61 12.45 20.19 14.14 22.41 14.14C24.63 14.14 26.21 12.45 26.21 10.33C26.21 8.25 24.63 6.58 22.41 6.58C20.19 6.58 18.61 8.25 18.61 10.33ZM19.64 10.36C19.64 8.76 20.79 7.49 22.41 7.49C24.02 7.49 25.16 8.76 25.16 10.36C25.16 11.94 24.02 13.23 22.41 13.23C20.79 13.23 19.64 11.94 19.64 10.36ZM27.24 7.62L28.38 7.62L28.38 12.00C28.38 13.57 29.25 14.14 30.37 14.14C31.11 14.14 31.81 13.99 32.38 13.73L32.27 12.84C31.75 13.06 31.16 13.22 30.52 13.22C29.83 13.22 29.41 12.85 29.41 11.98L29.41 7.62L32.34 7.62L32.34 6.72L29.41 6.72L29.41 4.65L28.41 4.91L28.41 6.72L27.24 6.72ZM34.44 5.10C34.87 5.10 35.24 4.73 35.24 4.27C35.24 3.85 34.87 3.50 34.44 3.50C33.99 3.50 33.64 3.85 33.64 4.27C33.64 4.73 33.99 5.10 34.44 5.10ZM34.93 6.72L33.88 6.72L33.88 14L34.93 14ZM44.27 3.78L36.37 3.78L36.37 4.79L39.73 4.79L39.73 14L40.87 14L40.87 4.79L44.27 4.79ZM51.06 6.72L51.06 12.18C50.12 12.82 49.17 13.22 48.34 13.22C47.25 13.22 46.65 12.60 46.65 11.42L46.65 6.72L45.60 6.72L45.60 11.47C45.60 13.22 46.54 14.14 48.08 14.14C49.15 14.14 50.11 13.78 51.18 13.06L51.37 14L52.11 14L52.11 6.72ZM58.27 6.58C57.08 6.58 56.15 6.99 55.52 7.78L55.52 3.08L54.53 3.08L54.53 14L55.24 14L55.45 12.87C56.08 13.69 56.98 14.14 58.25 14.14C60.24 14.14 61.87 12.46 61.87 10.33C61.87 8.23 60.23 6.58 58.27 6.58ZM58.18 13.23C56.91 13.23 56.07 12.61 55.57 11.61L55.57 9.10C56.04 8.13 56.90 7.49 58.18 7.49C59.57 7.49 60.80 8.72 60.80 10.33C60.80 11.96 59.58 13.23 58.18 13.23ZM66.85 6.58C64.81 6.58 63.22 8.19 63.22 10.33C63.22 12.50 64.76 14.14 66.86 14.14C68.53 14.14 69.79 13.06 70.03 11.76L69.03 11.76C68.82 12.66 67.97 13.23 66.86 13.23C65.42 13.23 64.36 12.15 64.25 10.63L70.07 10.63L70.17 10.54C70.35 8.41 68.87 6.58 66.85 6.58ZM64.29 9.74C64.54 8.39 65.60 7.48 66.84 7.48C68.12 7.48 69.02 8.48 69.16 9.76ZM80.93 3.78L77.11 9.63L73.30 3.78L72.34 3.78L72.34 14L73.35 14L73.35 5.57L76.83 10.82L77.45 10.82L80.89 5.52L80.89 14L81.90 14L81.90 3.78ZM87.70 6.58C85.65 6.58 84.07 8.19 84.07 10.33C84.07 12.50 85.61 14.14 87.71 14.14C89.38 14.14 90.64 13.06 90.87 11.76L89.88 11.76C89.67 12.66 88.82 13.23 87.71 13.23C86.27 13.23 85.20 12.15 85.09 10.63L90.92 10.63L91.01 10.54C91.20 8.41 89.71 6.58 87.70 6.58ZM85.13 9.74C85.39 8.39 86.45 7.48 87.68 7.48C88.97 7.48 89.87 8.48 90.01 9.76ZM96.42 6.58C95.65 6.58 94.78 6.97 93.84 7.76L93.66 6.72L92.92 6.72L92.92 14L93.95 14L93.95 8.75C94.86 7.98 95.61 7.59 96.22 7.59C96.54 7.59 96.82 7.64 97.06 7.73L97.19 6.71C96.98 6.64 96.73 6.58 96.42 6.58ZM104.65 6.72L104.48 7.87C103.85 7.03 102.91 6.58 101.74 6.58C99.69 6.58 98.06 8.20 98.06 10.32C98.06 12.46 99.68 14.07 101.77 14.07C102.93 14.07 103.80 13.65 104.41 12.87L104.41 13.71C104.41 15.11 103.28 16.06 101.85 16.06C100.72 16.06 99.76 15.57 99.60 14.80L98.59 14.80C98.88 16.10 100.16 16.95 101.85 16.95C103.87 16.95 105.38 15.64 105.38 13.71L105.38 6.72ZM101.81 13.17C100.35 13.17 99.12 11.91 99.12 10.32C99.12 8.72 100.35 7.49 101.81 7.49C103.01 7.49 103.88 8.13 104.34 9.09L104.34 11.56C103.85 12.56 103.01 13.17 101.81 13.17ZM110.91 6.58C108.86 6.58 107.28 8.19 107.28 10.33C107.28 12.50 108.82 14.14 110.92 14.14C112.59 14.14 113.85 13.06 114.09 11.76L113.09 11.76C112.88 12.66 112.03 13.23 110.92 13.23C109.48 13.23 108.42 12.15 108.30 10.63L114.13 10.63L114.23 10.54C114.41 8.41 112.92 6.58 110.91 6.58ZM108.35 9.74C108.60 8.39 109.66 7.48 110.89 7.48C112.18 7.48 113.08 8.48 113.22 9.76Z"></path></g><defs data-v-fde0c5aa=""><linearGradient data-v-fde0c5aa="" gradientTransform="rotate(25)" id="e1f13594-1d95-49fc-b3f0-5df78c591b13" x1="0%" y1="0%" x2="100%" y2="0%"><stop data-v-fde0c5aa="" offset="0%" stop-color="#006678" stop-opacity="1"></stop><stop data-v-fde0c5aa="" offset="100%" stop-color="#4FA8FF" stop-opacity="1"></stop></linearGradient></defs><g data-v-fde0c5aa="" id="af0348d5-5e92-495a-ab3f-11f07ff94dfa" stroke="none" fill="url(#e1f13594-1d95-49fc-b3f0-5df78c591b13)" transform="matrix(1.0080814361572266,0,0,1.0080814361572266,40,133.87069698169117)"><path d="M16 1c8.271 0 15 6.729 15 15s-6.729 15-15 15S1 24.271 1 16 7.729 1 16 1m0-1C7.163 0 0 7.163 0 16s7.163 16 16 16 16-7.163 16-16S24.837 0 16 0z"></path><path d="M16 7.045L24.955 16 16 24.955 7.045 16 16 7.045m0-1.414L5.631 16 16 26.369 26.369 16 16 5.631z"></path><path d="M16 12.538L19.462 16 16 19.462 12.538 16 16 12.538m0-1.414L11.124 16 16 20.876 20.876 16 16 11.124z"></path></g><!----></svg>